<svg width="2048" height="2048" viewBox="0 0 2048 2048" fill="none" xmlns="http://www.w3.org/2000/svg">
<path d="M1549.5 964.5C1548.7 948.5 1531.17 899.167 1522.5 876.5C1535.83 865.667 1566.5 850.5 1582.5 876.5C1598.5 902.5 1599.17 998.667 1597.5 1043.5H1549.5C1549.83 1023.83 1550.3 980.5 1549.5 964.5Z" fill="#4255FF"/>
<path d="M1213.5 894L1281.5 811.5C1302.3 801.5 1307.17 813.333 1307 820.5C1288.17 855.833 1246.8 928.2 1232 935C1217.2 941.8 1069.83 913.5 998 898.5C997 897 993.1 890.8 985.5 878C977.9 865.2 990.667 857 998 854.5L1213.5 894Z" fill="#E9C499"/>
<path d="M1039 894L1085 865.5C1087.17 864 1091.5 860.4 1091.5 858C1091.5 855 1080 848 1080.5 839.5C1081 831 1085 819.5 1096.5 827.5C1105.7 833.9 1103.33 845.833 1101 851L1104 935L1116.5 999.5C1120.17 999.333 1129 999.6 1135 1002C1142.5 1005 1162.5 1032 1170 1038.5C1177.5 1045 1184 1037 1189 1038.5C1194 1040 1189.5 1061 1184 1078C1178.5 1095 1163 1097 1158 1093.5C1154 1090.7 1164.33 1066 1170 1054C1151.17 1042 1112.5 1016.7 1108.5 1011.5C1104.5 1006.3 1089 966.833 1085 949L1093.5 880C1078.83 888.333 1043.8 908.4 1039 910C1033 912 1013.5 877.5 1007 861C1001.8 847.8 1011.17 848.833 1016.5 851L1039 894Z" fill="#48CB45"/>
<path d="M1086 930.5V865.5C1083.6 853.9 1097 852.333 1104 853C1119.67 853 1151.1 854.6 1151.5 861C1152 869 1150 919 1148.5 925.5C1147.3 930.7 1143.33 926.333 1141.5 923.5V871L1104 865.5C1103.17 876.167 1102 899.4 1104 907C1106.5 916.5 1107 942.5 1104 948.5C1101 954.5 1042.5 995 1039.5 998C1036.5 1001 1033.5 1014 1030 1018C1026.5 1022 1000 1062.5 997.5 1066.5C995 1070.5 998.5 1074.5 995.5 1078C992.5 1081.5 961 1070.5 954.5 1065C948 1059.5 957 1046 963.5 1051C968.7 1055 980.333 1060.33 985.5 1062.5C997.5 1040.33 1023.2 994.4 1030 988C1036.8 981.6 1070.17 947 1086 930.5Z" fill="#60EF5D"/>
<path d="M1317 831L1272.5 805L1308 766.5C1343.17 745.833 1421 703.5 1451 699.5C1488.5 694.5 1527 767.5 1527 781.5C1527 795.5 1589.5 858 1587 871C1584.5 884 1538 879 1527 878C1516 877 1458 860.5 1424 850C1396.8 841.6 1361 822.167 1346.5 813.5L1317 831Z" fill="#FEFEFE"/>
<path d="M1396 901L1435.5 806.5C1440.01 795.7 1457.38 802 1465.5 806.5C1450.5 843.667 1418.7 919.6 1411.5 926C1404.3 932.4 1328.83 975 1292 995.5C1293.5 1000.17 1294.4 1011.1 1286 1017.5C1275.5 1025.5 1254.5 1026.5 1249 1031C1243.5 1035.5 1198 1044.5 1181.5 1044.5C1165 1044.5 1181 1024.5 1187 1017.5C1191.8 1011.9 1206.33 1000.5 1213 995.5C1216.5 992 1225.7 984.6 1234.5 983C1243.3 981.4 1266.17 985.667 1276.5 988L1396 901Z" fill="#FFD9AD"/>
<path d="M967.5 913C961.5 910.6 965 860.667 967.5 836C972 819 967.5 817.441 979.5 812.5C999.9 804.1 1007.67 813.333 1009 819C1012.83 815.833 1022.8 811.4 1032 819C1043.5 828.5 1025.5 859 1020.5 859.5C1015.5 860 1009.5 843.5 1009 852C1008.5 860.5 1001.5 906.5 995.5 913C989.5 919.5 975 916 967.5 913Z" fill="#FFD9AD"/>
<circle cx="1347.5" cy="614.5" r="155.5" fill="#FFD9AD"/>
<path d="M1230.5 636.5C1228.5 631.167 1227.9 618.2 1241.5 609C1255.1 599.8 1267.17 609.167 1271.5 615M1365.5 602C1366.33 595.833 1372.4 581.9 1390 575.5C1407.6 569.1 1417 580.5 1419.5 587M1295 703.5C1303.67 710.167 1329.1 720.1 1361.5 706.5C1393.9 692.9 1402.67 663.833 1403 651" stroke="black" stroke-width="10"/>
<path d="M1154 544.5C1150.8 514.5 1174.67 501 1187 498C1185.67 481.167 1206 440.1 1298 410.5C1413 373.5 1452 453 1470.5 472C1485.3 487.2 1501 486.333 1507 484C1499 496.333 1466.6 526.7 1401 549.5C1335.4 572.3 1246 566.667 1209.5 561C1207.67 567.167 1202.9 582.1 1198.5 592.5C1194.1 602.9 1194 630.167 1194.5 642.5C1182.33 622.333 1157.2 574.5 1154 544.5Z" fill="black" stroke="white" stroke-width="2"/>
<path d="M1464 782L1475 749.5V816.5L1464 812C1456.33 829.667 1440.7 866 1439.5 870C1438 875 1413 922 1409.5 924.5C1406.7 926.5 1330 970.667 1292 992.5C1291.17 998.667 1288.9 1011.8 1286.5 1015C1283.5 1019 1271.5 1022 1267 1022.5C1262.5 1023 1249.5 1029.5 1244.5 1032.5C1240.5 1034.9 1214.83 1039.83 1202.5 1042C1224.33 1033.5 1269.5 1015.4 1275.5 1011C1283 1005.5 1279.5 997.5 1283.5 992.5C1287.5 987.5 1403.5 918 1409.5 911.5C1414.3 906.3 1442.5 839.667 1456 807L1420 793L1445.5 793.5L1464 782Z" fill="black" fill-opacity="0.25"/>
<path d="M1325 793L1345 812L1316 829.5L1305.5 821C1302.33 827.167 1294.1 841.9 1286.5 851.5C1277 863.5 1241.5 924.5 1228.5 930.5C1215.5 936.5 1156.5 924.5 1165.5 924.5C1172.7 924.5 1210.5 919.167 1228.5 916.5L1292 825.5L1283.5 812L1296 816.5L1325 793Z" fill="black" fill-opacity="0.25"/>
<path d="M1432.5 714.5C1407.3 747.3 1344.33 760.5 1316 763C1376 792 1457.5 733 1473 707.5C1481.08 694.207 1489.5 685 1500.5 630.5C1509.3 586.9 1483.5 539 1469.5 520.5L1447.5 531.5C1456.67 542 1473.9 571.8 1469.5 607C1464 651 1464 673.5 1432.5 714.5Z" fill="black" fill-opacity="0.25"/>
<path d="M1555 829.5C1551.4 824.7 1531.17 795.833 1521.5 782C1499 771 1518.5 812 1533.5 825.5C1548.5 839 1555 861 1555 870C1555 879 1536 874.5 1527 874.5C1518 874.5 1521.5 881 1530 883.5C1538.5 886 1558.5 889.5 1567 890C1575.5 890.5 1575 903 1576.5 911.5C1578 920 1582 939.5 1582 949C1582 956.6 1586.33 1014.17 1588.5 1042H1596.5C1594.17 998.5 1589.3 909.8 1588.5 903C1587.7 896.2 1583.83 881.167 1582 874.5C1582 871 1581.4 862.9 1579 858.5C1576 853 1559.5 835.5 1555 829.5Z" fill="black" fill-opacity="0.25"/>
<path d="M1569.5 978.5C1571.5 994.5 1572.33 1027.5 1572.5 1042H1564C1565 1033.83 1567 1015.5 1567 1007.5C1567 999.5 1562.67 945.167 1560.5 919C1562.67 932.167 1567.5 962.5 1569.5 978.5Z" fill="black" fill-opacity="0.25"/>
</svg>
