<svg width="2048" height="2048" viewBox="0 0 2048 2048" fill="none" xmlns="http://www.w3.org/2000/svg">
<path d="M652 729L627.5 769L664 788.5L676.5 765L652 729Z" fill="#E9C499"/>
<circle cx="780.5" cy="663.5" r="152.5" fill="#FFD9AD"/>
<path d="M741.5 701C738.667 691.5 738.6 671.2 761 666C783.4 660.8 792.667 679.167 794.5 689M847 689C846 681 849.2 664 870 660C890.8 656 898 672 899 680.5M841 784.5C813.333 789.333 749.5 791.9 715.5 763.5" stroke="black" stroke-width="10"/>
<path d="M644 642.5C632.8 656.9 630.333 684.5 630.5 696.5C566 661.5 602 571.5 612 555C620 541.8 644 535.167 655 533.5C657.833 512.667 687.8 469.5 785 463.5C906.5 456 937.5 551 950.5 559C960.9 565.4 969.833 556.333 973 551C974.5 560.333 974.9 584.1 964.5 604.5C954.1 624.9 939.5 632.333 933.5 633.5C930.5 629.833 919.3 620.6 898.5 613C872.5 603.5 853.5 628.5 789.5 633.5C738.3 637.5 693.5 623.5 677.5 616C671 618.833 655.2 628.1 644 642.5Z" fill="black" stroke="white" stroke-width="2"/>
<path d="M530 815L540.5 773.5L413 828.5L398 742C405.167 731.833 419.7 709.2 420.5 700C421.5 688.5 413 684 408.5 668.5C404 653 392 668.5 398 691.5C399.136 695.854 362.5 722.5 347 726C331.5 729.5 282.5 723 269 730C258.2 735.6 326.833 742 362.5 744.5C370 781.667 386.4 857.2 392 862C397.6 866.8 486.333 832.667 530 815Z" fill="#FFD9AD"/>
<path d="M698 853L672 881.5C687.333 910.167 719.5 969.3 725.5 976.5C733 985.5 883 948 900 948C913.6 948 915.333 967 914.5 976.5C917.833 968.5 925.4 951.6 929 948C933.5 943.5 954 943.5 949.5 948C945 952.5 961.5 972 970.5 976.5C979.5 981 980 973.5 980 967.5C980 961.5 982 930.5 980 926.5C978 922.5 960.5 903.5 954 900C948.8 897.2 810.5 922.833 742 936L698 853Z" fill="#FFD9AD"/>
<ellipse cx="276.821" cy="698.859" rx="126.798" ry="39.1434" transform="rotate(-3.26486 276.821 698.859)" fill="#DBB146"/>
<ellipse cx="203.5" cy="703" rx="29.5" ry="11" fill="#F6FFC1"/>
<ellipse cx="347.5" cy="696" rx="29.5" ry="11" fill="#82FF87"/>
<ellipse cx="277.5" cy="718" rx="29.5" ry="11" fill="#6950FE"/>
<ellipse cx="268.5" cy="681" rx="29.5" ry="11" fill="#F81616"/>
<path d="M789.5 1151.5L778.5 1098L945.5 1189.5L1276 936L1266.5 999L951 1240L789.5 1151.5Z" fill="#E6983D"/>
<path d="M946 1196L777 1097L1111 838L1277 936.5L946 1196Z" fill="#EDEDED"/>
<path d="M1102.5 901.5C1080 912 1072 905 1077.5 922C1079.22 927.309 1081.42 932.228 1083.52 937C1101.82 934.683 1123.14 936.091 1133 937.5C1143.5 939 1128.5 964 1124.5 972C1120.5 980 1122.5 984 1128.5 1001.5C1131.61 1010.56 1132.43 1012.25 1134.25 1012.81C1156.4 996.004 1139.81 1003.54 1165 989C1165.7 988.595 1166.38 988.199 1167.05 987.813C1165.88 985.143 1164.72 981.695 1164 977C1161 957.5 1163.5 972 1173 948C1182.5 924 1203 937.5 1211.5 937.5C1220 937.5 1218 947.5 1218 964C1218 980.5 1215.5 969 1202 970.5C1188.86 971.959 1190.88 973.892 1167.05 987.813C1170.72 996.232 1174.49 996.907 1165 1004.5C1152.5 1014.5 1157 1024 1144.5 1016.5C1138.47 1012.88 1135.93 1013.34 1134.25 1012.81C1133.54 1013.35 1132.79 1013.91 1132 1014.5C1106.5 1033.5 1119 1018 1096 1016.5C1073 1015 1084.5 1015 1063.5 1018C1042.5 1021 1059.5 1023 1050 1036C1040.5 1049 1025.5 1039.5 1007 1037C988.5 1034.5 1011 1031.5 1010 1024C1009 1016.5 1020 1008 1032 996.5C1044 985 1060.5 996.5 1077.5 996.5C1094.5 996.5 1085.5 986 1089.5 969C1092.25 957.309 1088.14 947.51 1083.52 937C1082.33 937.151 1081.16 937.317 1080 937.5C1061 940.5 1034.5 954 1029 940C1023.5 926 1023 922 1039.5 909.5C1056 897 1059.5 884.5 1075.5 884.5C1091.5 884.5 1117.5 881 1102.5 901.5Z" fill="url(#paint0_linear_2_92)"/>
<path d="M908 843C912.4 845.4 959.167 948.667 982 1000C982 1018.8 966.667 1011.17 959 1005C940.833 957.833 904.1 862.3 902.5 857.5C900.5 851.5 902.5 840 908 843Z" fill="#464646"/>
<path d="M975.5 1038.5C945.5 1033.3 957 1010.33 966.5 999.5C988.5 991 1003 1004 1013.5 999.5C1021.9 995.9 1031.67 976.667 1035.5 967.5C1036.5 976.167 1037.2 996.4 1032 1008C1025.5 1022.5 1013 1045 975.5 1038.5Z" fill="#86A1FF"/>
<path d="M398 653.5C405.2 651.9 407.667 661.833 408 667C406.333 677.5 402 696.7 398 689.5C393 680.5 357 689.5 343.5 686C330 682.5 334 675.5 343.5 672.5C353 669.5 389 655.5 398 653.5Z" fill="#FFD9AD"/>
<path d="M935 949C931 946.2 925 937.167 922.5 933C899.5 920.5 904 943.5 904 953C904 960.6 911.667 971.833 915.5 976.5C930.667 972.833 960.7 964.4 959.5 960C958 954.5 940 952.5 935 949Z" fill="#FFD9AD"/>
<path d="M484.5 930C476.9 932 461.667 997.833 455 1030.5H473L494.5 994.5L504.5 1030.5H528.5V1003C528.5 993.5 532.5 972 534.5 957C536.5 942 529.5 930 520 930C510.5 930 494 927.5 484.5 930Z" fill="#4255FF"/>
<path d="M667.5 790C663.5 783.5 611 759.5 608 758C594.4 754 547.667 764 526 769.5L524 829L545 819C537.667 828.667 521.4 850.2 515 859C507 870 486 921 484.5 930C483 939 524 943 532 942C540 941 618.5 891.5 625 886.5C630.2 882.5 643.5 866.5 649.5 859L659.5 891.5L708.5 850C696.167 832.167 670.7 795.2 667.5 790Z" fill="white"/>
<path d="M525.5 793.5V828L546 819C538 830.5 521 854.5 517 858.5C513 862.5 494.333 907.5 485.5 929.5C482.667 934.5 476.5 946.5 474.5 954.5C472.5 962.5 461.333 1007.83 456 1029.5H463C467.333 1012.83 476.6 977.2 479 968C482 956.5 491.5 941.5 498.5 941.5H528.5C523.333 940 512 936.7 508 935.5C503 934 496.5 926.5 498.5 919C500.5 911.5 525.5 863.5 541.5 846.5C554.3 832.9 570.834 805.5 577.5 793.5H525.5Z" fill="black" fill-opacity="0.25"/>
<path d="M500.5 987.5C499.3 989.1 496.667 993.167 495.5 995L507 1029.5H517C514 1018.83 507.8 996.7 507 993.5C506 989.5 502 985.5 500.5 987.5Z" fill="black" fill-opacity="0.25"/>
<path d="M404 844C406.4 846.8 485 815.5 524 799.5V815C482 830.167 397.2 860.5 394 860.5C390 860.5 387.5 838 385.5 833.5C383.9 829.9 370.167 770.667 363.5 741.5L299 736C316.833 732.5 354.7 725 363.5 723C372.3 721 390.167 710.833 398 706C395.667 711.333 390.3 722.7 387.5 725.5C384 729 382 739.5 382.5 741.5C383 743.5 401 840.5 404 844Z" fill="black" fill-opacity="0.25"/>
<path d="M650.5 741.5L634.5 769L653.5 780L665.5 762C667.333 762.5 676.1 768.8 696.5 790C716.9 811.2 769.333 815.5 793 815C777 812.5 739.2 803.4 716 787C687 766.5 668.5 736 660 706C651.5 676 662 625.5 653.5 632C645 638.5 634.5 667.5 634.5 669.5C634.5 671.5 634.5 700 639.5 710C643.5 718 648.5 734.333 650.5 741.5Z" fill="black" fill-opacity="0.25"/>
<path d="M665.5 839.5L650.5 858.5L660 887.5L675 877.5C692.333 908.833 728 972.2 732 975C736 977.8 848.333 957.833 904 947.5V929.5C848.667 942.333 736.8 967 732 963C727.2 959 701 904.333 688.5 877.5L701 858.5L688.5 866.5L665.5 839.5Z" fill="black" fill-opacity="0.25"/>
<path d="M789.5 1150L779.5 1099.5L945.5 1195L950.5 1239.5L789.5 1150Z" fill="black" fill-opacity="0.25"/>
<defs>
<linearGradient id="paint0_linear_2_92" x1="1029" y1="1022" x2="1117" y2="880" gradientUnits="userSpaceOnUse">
<stop stop-color="#304EB5"/>
<stop offset="1" stop-color="#304EB5" stop-opacity="0"/>
</linearGradient>
</defs>
</svg>
