<svg width="300" height="300" viewBox="0 0 300 300" fill="none" xmlns="http://www.w3.org/2000/svg">
<path fill-rule="evenodd" clip-rule="evenodd" d="M150 300C232.843 300 300 232.843 300 150C300 67.1573 232.843 0 150 0C67.1573 0 0 67.1573 0 150C0 232.843 67.1573 300 150 300ZM61 202.5V98.5L149 46.5L238.5 98.5V202.5L149 253.5L61 202.5Z" fill="black"/>
<path fill-rule="evenodd" clip-rule="evenodd" d="M71 196V103.5L150 57.5L229 103.5V196L150 241.5L71 196ZM192.5 127.5H106.5L114.5 91.5H184L192.5 127.5ZM132 174.5L134.5 152.5L127 133.5H171.5L164.5 152.5L166.5 174.5H132ZM127 152.5L106.5 139.5L83 157.5L114.5 213H127L142.5 199.5V192L127 176.5V152.5ZM171.5 152.5L192.5 139.5L215.5 157.5L184 213H171.5L156.5 199.5V192L171.5 176.5V152.5Z" fill="black"/>
</svg>
