<svg width="2048" height="2048" viewBox="0 0 2048 2048" fill="none" xmlns="http://www.w3.org/2000/svg">
<path d="M608.5 1266V1238H643.5L638 1266H608.5Z" fill="#E9C499"/>
<path d="M584.5 1315L536.5 1319.5C547.167 1304.33 570.6 1273 579 1269C589.5 1264 655 1261 665 1261C673 1261 693 1281.33 702 1291.5L659.5 1307C653.5 1348.17 640.3 1431 635.5 1433C630.7 1435 599.5 1430.83 584.5 1428.5V1315Z" fill="white"/>
<circle cx="644.5" cy="1080.5" r="164.5" fill="#FFD9AD"/>
<path d="M544.5 1092C544.667 1083.33 549.6 1065.2 568 1062C586.4 1058.8 594.333 1072.67 596 1080M697 1077.5C695.667 1070.33 697.5 1055.1 715.5 1051.5C738 1047 749.5 1064 750 1072M588 1166C594.5 1174 618.2 1187.6 661 1178C703.8 1168.4 723.167 1146.67 727.5 1137" stroke="black" stroke-width="10"/>
<path d="M499.5 1050.5C492.3 1064.9 486.5 1097.17 484.5 1111.5C420.5 1077.5 452.5 982 463 970C471.4 960.4 488.833 960 496.5 961C498.333 956 505.3 942.9 518.5 930.5C535 915 553.5 881 647 877C740.5 873 778.5 960.5 791 968C801 974 816.5 970.5 823 968C817.5 973.833 804.7 986.9 797.5 992.5C788.5 999.5 709 1025 642 1029C588.4 1032.2 537.333 1019.67 518.5 1013C515.167 1019.5 506.7 1036.1 499.5 1050.5Z" fill="black" stroke="white" stroke-width="2"/>
<path d="M528 1426L549.5 1317.5C570.5 1314 566 1317.5 576.5 1317.5L560.5 1395C573.167 1380.5 603 1347.9 621 1333.5C639 1319.1 633.167 1346.17 628 1361.5C604.667 1386.17 554.9 1435.3 542.5 1434.5C530.1 1433.7 527.667 1428.5 528 1426Z" fill="#E9C499"/>
<path d="M713.5 1407.5C708.7 1406.7 686.333 1337.17 675 1300C685.5 1295 685 1295 695.5 1295L716.5 1365.5C724.333 1355.83 743.7 1333.8 758.5 1323C773.3 1312.2 781 1325.5 783 1333.5C761.833 1358.5 718.3 1408.3 713.5 1407.5Z" fill="#E9C499"/>
<path d="M623 1318C629 1314 651.833 1308.67 662.5 1306.5C681 1302.23 695 1311 709 1306.5C723 1302 727.5 1309 724.5 1318C721.5 1327 710.5 1335.5 702.5 1335.5H682.5C683.5 1352.17 684.9 1386.6 682.5 1391C679.5 1396.5 668.5 1395.5 662.5 1391C657.7 1387.4 654.833 1367.83 654 1358.5C646.5 1359.83 629.8 1361.7 623 1358.5C614.5 1354.5 615.5 1323 623 1318Z" fill="#FFD9AD"/>
<path d="M900.5 1399.5L659 1406.5C612.167 1370.83 584.09 1200.74 727.499 1146C886 1085.5 963.167 1225.83 982 1278.5L900.5 1399.5Z" fill="url(#paint0_radial_2_72)"/>
<path d="M655 1402V1415L737.5 1412.5L740 1385L655 1402Z" fill="#C4C4C4"/>
<path d="M767 1303L720.5 1413L907.5 1410.5C928.667 1382.33 973.1 1320.7 981.5 1299.5C989.9 1278.3 982.667 1274.67 978 1275.5C927.667 1278.17 821 1283.9 797 1285.5C773 1287.1 767 1297.83 767 1303Z" fill="#E8E8E8"/>
<path d="M408.5 1476.5V1666C427.667 1686.33 491.9 1743.4 595.5 1809C699.1 1874.6 901.333 1907.33 989.5 1915.5L1004 1476.5H408.5Z" fill="#977C53"/>
<path d="M1088.5 1407H366L394 1508.5L1064 1497.5L1088.5 1407Z" fill="#DDAF6B"/>
<path d="M550.5 1178C517.775 1142.66 506.167 1080 506.5 1051C499 1062.17 485.5 1092 491.5 1122C499 1159.5 529 1192.5 541.5 1206.5C551.5 1217.7 591.333 1234.5 610 1241.5V1262H624V1244.5C620.333 1243.67 618.4 1242.5 640 1244.5C661.6 1246.5 701.667 1232.33 719 1225C714.167 1226 699.799 1231.5 680 1231.5C606.5 1231.5 588 1218.5 550.5 1178Z" fill="black" fill-opacity="0.25"/>
<path d="M561 1290C565 1286 576 1275.67 581 1271C574.333 1282.67 561.8 1306.2 565 1307C568.2 1307.8 572 1314.33 573.5 1317.5L557 1321L546 1407H535L550.5 1315H541.5C546.333 1308.33 557 1294 561 1290Z" fill="black" fill-opacity="0.25"/>
<path d="M618.5 1354.5L561 1407H579.5L627.5 1360.5C626.333 1360.5 623.4 1360 621 1358C618.6 1356 618.333 1354.83 618.5 1354.5Z" fill="black" fill-opacity="0.25"/>
<path d="M684 1296.5L676 1301L678 1305L689 1307L684 1296.5Z" fill="black" fill-opacity="0.25"/>
<path d="M702.5 1383C702.1 1380.6 692.333 1351 687.5 1336.5H695C698.5 1347 705.5 1368.9 705.5 1372.5C705.5 1376.1 710.833 1376 713.5 1375.5V1391H705.5C704.667 1389.33 702.9 1385.4 702.5 1383Z" fill="black" fill-opacity="0.25"/>
<path d="M417.5 1656.5V1511.5L999.5 1499V1529.5C958.5 1535.17 853.7 1550.8 762.5 1568C671.3 1585.2 494.5 1634.17 417.5 1656.5Z" fill="black" fill-opacity="0.25"/>
<defs>
<radialGradient id="paint0_radial_2_72" cx="0" cy="0" r="1" gradientUnits="userSpaceOnUse" gradientTransform="translate(873 1396.5) rotate(-123.873) scale(174.038 228.114)">
<stop stop-color="#EEFEFF"/>
<stop offset="1" stop-color="white" stop-opacity="0"/>
</radialGradient>
</defs>
</svg>
