<svg width="2048" height="2048" viewBox="0 0 2048 2048" fill="none" xmlns="http://www.w3.org/2000/svg">
<path d="M1348 1270L1342 1227L1381.5 1211.5V1260.5L1348 1270Z" fill="#FFD9AD"/>
<circle cx="1324" cy="1075" r="158" fill="#FFD9AD"/>
<path d="M1247 1078.5C1248.67 1063.67 1256.5 1034.8 1274.5 1038C1292.5 1041.2 1295 1049.33 1294 1053M1255.5 1216C1276 1209.67 1320.7 1192.9 1335.5 1176.5C1350.3 1160.1 1351.33 1145.33 1350 1140" stroke="black" stroke-width="10"/>
<path d="M1211.5 876C1190.3 910.8 1202.67 954.5 1211.5 972L1466.5 1003C1467.5 994.167 1466.9 968.7 1456.5 937.5C1443.5 898.5 1347.5 858.5 1326 852.5C1304.5 846.5 1238 832.5 1211.5 876Z" fill="#4255FF"/>
<path d="M1062.5 976.5L1466.5 1003L1207 962.5C1172.33 961.5 1097.3 960.1 1074.5 962.5C1051.7 964.9 1057 972.833 1062.5 976.5Z" fill="black"/>
<path d="M864 1055L946.5 1098.5V1162L874.5 1209L864 1055Z" fill="#A3A3A3"/>
<path d="M996 1036L985.5 1074H996L1003 1051.5L1076.5 1048L1091.5 1070H1103L1091.5 1036H996Z" fill="#A3A3A3"/>
<path d="M1151.5 1038.5L1131 1070V1105.5L1151.5 1112V1038.5Z" fill="#A3A3A3"/>
<path d="M940 1100L959 1072.5L1103.5 1062.5L1114.5 1072.5L1133.5 1070L1131.5 1100H1114.5C1113.33 1121.17 1110.6 1164.5 1109 1168.5C1107.4 1172.5 1078.67 1188.83 1064.5 1196.5L967.5 1188.5L964 1173.5L944.5 1163.5L940 1100Z" fill="#787878"/>
<path d="M1191 1331L1301.5 1308C1312.3 1308 1306 1330.33 1301.5 1341.5C1262.33 1351 1182.6 1368.8 1177 1364C1170 1358 1059 1238.5 1051 1233.5C1043 1228.5 1031.5 1221.5 1026 1218C1020.5 1214.5 1010 1185 1006.5 1170.5C1003 1156 997.5 1113.5 1026 1110.5C1054.5 1107.5 1063.5 1160.5 1067.5 1170.5C1070.7 1178.5 1082.17 1179.5 1087.5 1179C1089.17 1182.17 1091.5 1190.1 1087.5 1196.5C1083.5 1202.9 1080.5 1207.17 1079.5 1208.5L1191 1331Z" fill="#FFD9AD"/>
<path d="M1033.5 1152.5C1019.1 1152.1 998.5 1150.33 990 1149.5C987.413 1149.25 983 1157 987.5 1163C992 1169 1006 1170 1026.5 1170C1047 1170 1071 1160.5 1074 1157C1077 1153.5 1079 1145.5 1074 1140.5C1069 1135.5 1051.5 1153 1033.5 1152.5Z" fill="#A3A3A3"/>
<path d="M1269 1879.5L1239.5 1887C1242.5 1868.17 1249.8 1827.2 1255 1814C1261.5 1797.5 1269 1684 1276 1678.5C1283 1673 1317.06 1580.81 1326.5 1557C1338 1528 1359.5 1487.5 1378.5 1460L1411 1437.5C1419.33 1442 1438.8 1457.5 1450 1483.5C1461.2 1509.5 1438.67 1618.67 1426 1670C1429.67 1675 1438.5 1687.3 1444.5 1696.5C1450.5 1705.7 1471.33 1762.67 1481 1790L1454.5 1804.5C1434.67 1771.67 1393.6 1703.2 1388 1692C1382.4 1680.8 1385.67 1595.83 1388 1550.5L1309.5 1692C1311.33 1702 1310.7 1711.7 1309.5 1724.5C1308.3 1737.3 1282 1833.17 1269 1879.5Z" fill="#4255FF"/>
<path d="M1365 1256C1355.4 1259.2 1310 1283.67 1288.5 1295.5L1300 1348.5L1336.5 1342.5C1343.33 1376.33 1358.6 1448.7 1365 1467.5C1373 1491 1435 1456.5 1442.5 1444C1450 1431.5 1412 1300.5 1411 1275C1410 1249.5 1377 1252 1365 1256Z" fill="white"/>
<path d="M1260 940C1270.4 970.4 1350.33 988.333 1389 993.5L1425 1000.5C1431.83 1017.67 1445.5 1057.5 1445.5 1079.5C1445.5 1107 1442.5 1135.5 1405.5 1178C1375.9 1212 1317.83 1226.5 1292.5 1229.5C1299 1230.5 1314.1 1232.5 1322.5 1232.5C1330.9 1232.5 1345 1230.5 1351 1229.5L1355 1261L1375.5 1253V1222C1378.83 1223.67 1394.3 1219.4 1429.5 1189C1473.5 1151 1474 1109.5 1478.5 1079.5C1482.1 1055.5 1468.33 1016.83 1461 1000.5C1458 987.833 1450.7 958 1445.5 940C1439 917.5 1406.5 903.5 1346.5 882C1286.5 860.5 1247 902 1260 940Z" fill="black" fill-opacity="0.25"/>
<path d="M1054 1222H1031.5C1039 1225.5 1055.1 1233.7 1059.5 1238.5C1065 1244.5 1169.5 1354 1179.5 1361C1187.5 1366.6 1262.17 1350.67 1298.5 1342L1302 1349L1337 1342L1342 1318.5L1298.5 1329.5L1292.5 1310V1333L1183 1349C1149.67 1312.33 1081.8 1237.7 1077 1232.5C1071 1226 1065.5 1222 1054 1222Z" fill="black" fill-opacity="0.25"/>
<path d="M1386 1530V1551.5L1307 1691.5C1307.83 1694.67 1309.5 1704.6 1309.5 1719C1310.3 1730.6 1281.5 1832.5 1267 1882H1255C1261.5 1856.83 1275.9 1801.6 1281.5 1782C1287.1 1762.4 1291.17 1704.17 1292.5 1677.5L1386 1530Z" fill="black" fill-opacity="0.25"/>
<path d="M1440.5 1426C1439.7 1420.4 1421.83 1338.33 1413 1298C1392.5 1302.5 1407.5 1375 1413 1407.5C1418.5 1440 1413 1466 1398 1470.5C1386 1474.1 1373.33 1476 1368.5 1476.5C1369.17 1477.83 1371.7 1480.9 1376.5 1482.5C1382.5 1484.5 1403 1480.5 1413 1476.5C1423 1472.5 1424 1489 1424 1494.5V1551.5C1424 1573 1403 1677.5 1407.5 1685C1411.1 1691 1449 1762.17 1467.5 1797L1479.5 1791C1472.33 1772.83 1456.6 1732.1 1451 1714.5C1445.4 1696.9 1430.67 1679.17 1424 1672.5C1430.83 1641.5 1445 1576 1447 1562C1449.5 1544.5 1454 1502.5 1451 1489C1448.6 1478.2 1436 1462.5 1430 1456L1440.5 1442C1440.83 1439 1441.3 1431.6 1440.5 1426Z" fill="black" fill-opacity="0.25"/>
<path d="M870.5 1146L874.5 1206.5L944.5 1162.5L964.5 1173.5L968 1188L1013 1192L1006 1169.5C1002.67 1168.83 995.4 1167.4 993 1167C990 1166.5 987 1162 985.5 1158C984.3 1154.8 987.333 1151.33 989 1150H1003.5C1003.33 1147.83 1003.1 1143 1003.5 1141C1003.9 1139 1004.67 1131.5 1005 1128L952 1119.5L941.5 1099.5V1128L870.5 1146Z" fill="black" fill-opacity="0.25"/>
<path d="M1077 1127C1069.4 1128.2 1056.83 1127.5 1051.5 1127C1052.7 1128.2 1057.33 1139.17 1059.5 1144.5C1062.67 1143 1069.3 1139.9 1070.5 1139.5C1072 1139 1076 1141 1077 1144.5C1078 1148 1075 1156 1073.5 1158C1072.3 1159.6 1067 1161.33 1064.5 1162C1065.5 1164.5 1068 1170.5 1070 1174.5C1072 1178.5 1082.17 1178.83 1087 1178.5L1088.5 1181C1094.83 1177.17 1107.7 1169 1108.5 1167C1109.3 1165 1112.17 1122.17 1113.5 1101C1104.5 1109.17 1084.6 1125.8 1077 1127Z" fill="black" fill-opacity="0.25"/>
<path d="M1115 1077V1100H1131.5V1104.5L1150.5 1111V1073L1132.5 1084.5V1076L1115 1077Z" fill="black" fill-opacity="0.25"/>
<path d="M1000 1045.5L991.5 1070H995.5L1002 1051L1077 1047L1084.5 1042L1000 1045.5Z" fill="black" fill-opacity="0.25"/>
</svg>
